<svg width="31.000000" height="31.000000" viewBox="0 0 31 31" fill="none" xmlns="http://www.w3.org/2000/svg" xmlns:xlink="http://www.w3.org/1999/xlink">
	<desc>
			Created with Pixso.
	</desc>
	<defs/>
	<circle id="Ellipse 95" cx="15.500000" cy="15.500000" r="15.500000" fill="#FD7583" fill-opacity="1.000000"/>
	<path id="Vector" d="M23.35 9.12L9.13 23.35C8.77 23.71 8.15 23.66 7.74 23.25C7.33 22.84 7.28 22.22 7.64 21.86L21.87 7.64C22.22 7.28 22.84 7.33 23.25 7.74C23.66 8.15 23.71 8.77 23.35 9.12Z" fill="#FFFFFF" fill-opacity="1.000000" fill-rule="nonzero"/>
	<path id="Vector" d="M21.87 23.35L7.64 9.13C7.29 8.77 7.33 8.15 7.74 7.74C8.15 7.33 8.77 7.28 9.13 7.64L23.35 21.86C23.71 22.22 23.66 22.84 23.25 23.25C22.85 23.66 22.22 23.71 21.87 23.35Z" fill="#FFFFFF" fill-opacity="1.000000" fill-rule="nonzero"/>
</svg>
