<svg width="30.721680" height="30.725586" viewBox="0 0 30.7217 30.7256" fill="none" xmlns="http://www.w3.org/2000/svg" xmlns:xlink="http://www.w3.org/1999/xlink">
	<desc>
			Created with Pixso.
	</desc>
	<defs/>
	<path id="иконка моя страница" d="M17.92 30.15C21.03 29.61 23.75 28.19 25.99 25.92C28.12 23.77 29.48 21.17 30.07 18.19C31.59 10.35 26.7 2.71 18.93 0.81C11.47 -1.02 3.85 3.05 1.22 10.28C0.76 11.56 0.48 12.87 0.39 14.2C0.39 14.29 0.37 14.36 0.36 14.44C0.36 14.46 0.34 14.47 0.34 14.5L0.34 16.24C0.37 16.42 0.39 16.6 0.41 16.78C0.45 17.17 0.5 17.56 0.56 17.95C1.16 21.39 2.81 24.32 5.46 26.65C7.66 28.6 10.3 29.81 13.26 30.22C13.53 30.26 13.81 30.3 14.08 30.32C14.2 30.33 14.32 30.35 14.44 30.37L16.2 30.37C16.38 30.35 16.55 30.32 16.74 30.3C17.14 30.26 17.54 30.21 17.92 30.15ZM5.42 24.18L5.3 24.6L5 24.29C3.11 22.31 1.91 19.41 1.67 16.36C1.49 13.9 1.88 10.2 4.77 6.68C7.16 3.76 10.69 1.95 14.48 1.71C18.25 1.47 21.96 2.8 24.66 5.35C30.71 11.06 29.91 19.63 25.69 24.31L25.4 24.64L25.27 24.21C24.29 20.77 22.19 18.44 18.87 17.08L18.47 16.92L18.82 16.67C20.65 15.31 21.55 13.53 21.51 11.39C21.47 9.63 20.76 8.12 19.38 6.88C16.92 4.69 13.04 4.93 10.76 7.43C9.63 8.68 9.05 10.46 9.24 12.2C9.42 13.98 10.36 15.57 11.88 16.66L12.24 16.91L11.82 17.08C8.53 18.43 6.37 20.82 5.42 24.18ZM15.35 16.42C12.68 16.42 10.48 14.24 10.47 11.57C10.46 10.28 10.96 9.06 11.88 8.13C12.81 7.2 14.04 6.68 15.33 6.68C16.64 6.68 17.87 7.19 18.8 8.13C19.72 9.06 20.22 10.28 20.21 11.57C20.19 14.24 18.01 16.42 15.35 16.42ZM15.92 29.05C15.8 29.07 15.7 29.07 15.6 29.08L15.59 29.08L15.58 29.08C12.14 29.04 9.24 28.03 6.72 26C6.6 25.91 6.48 25.69 6.5 25.49C7 21.66 10.02 18.55 13.83 17.9C18.53 17.11 22.91 20.01 24.03 24.66L24.03 24.69C24.27 25.7 24.24 25.81 23.42 26.42C21.53 27.81 19.4 28.66 17.08 28.96C16.66 29 16.24 29.04 15.92 29.05Z" fill="#666666" fill-opacity="1.000000" fill-rule="nonzero"/>
	<path id="иконка моя страница" d="M25.99 25.92C28.12 23.77 29.48 21.17 30.07 18.19C31.59 10.35 26.7 2.71 18.93 0.81C11.47 -1.02 3.85 3.05 1.22 10.28C0.76 11.56 0.48 12.87 0.39 14.2C0.39 14.29 0.37 14.36 0.36 14.44C0.36 14.46 0.34 14.47 0.34 14.5L0.34 16.24C0.37 16.42 0.39 16.6 0.41 16.78C0.45 17.17 0.5 17.56 0.56 17.95C1.16 21.39 2.81 24.32 5.46 26.65C7.66 28.6 10.3 29.81 13.26 30.22C13.53 30.26 13.81 30.3 14.08 30.32C14.2 30.33 14.32 30.35 14.44 30.37L16.2 30.37C16.38 30.35 16.55 30.32 16.74 30.3C17.14 30.26 17.54 30.21 17.92 30.15C21.03 29.61 23.75 28.19 25.99 25.92ZM5.3 24.6L5 24.29C3.11 22.31 1.91 19.41 1.67 16.36C1.49 13.9 1.88 10.2 4.77 6.68C7.16 3.76 10.69 1.95 14.48 1.71C18.25 1.47 21.96 2.8 24.66 5.35C30.71 11.06 29.91 19.63 25.69 24.31L25.4 24.64L25.27 24.21C24.29 20.77 22.19 18.44 18.87 17.08L18.47 16.92L18.82 16.67C20.65 15.31 21.55 13.53 21.51 11.39C21.47 9.63 20.76 8.12 19.38 6.88C16.92 4.69 13.04 4.93 10.76 7.43C9.63 8.68 9.05 10.46 9.24 12.2C9.42 13.98 10.36 15.57 11.88 16.66L12.24 16.91L11.82 17.08C8.53 18.43 6.37 20.82 5.42 24.18L5.3 24.6ZM10.47 11.57C10.46 10.28 10.96 9.06 11.88 8.13C12.81 7.2 14.04 6.68 15.33 6.68C16.64 6.68 17.87 7.19 18.8 8.13C19.72 9.06 20.22 10.28 20.21 11.57C20.19 14.24 18.01 16.42 15.35 16.42C12.68 16.42 10.48 14.24 10.47 11.57ZM15.6 29.08L15.59 29.08L15.58 29.08C12.14 29.04 9.24 28.03 6.72 26C6.6 25.91 6.48 25.69 6.5 25.49C7 21.66 10.02 18.55 13.83 17.9C18.53 17.11 22.91 20.01 24.03 24.66L24.03 24.69C24.27 25.7 24.24 25.81 23.42 26.42C21.53 27.81 19.4 28.66 17.08 28.96C16.66 29 16.24 29.04 15.92 29.05C15.8 29.07 15.7 29.07 15.6 29.08Z" stroke="#666666" stroke-opacity="1.000000" stroke-width="0.700000"/>
</svg>
