<svg width="29.590942" height="29.136719" viewBox="0 0 29.5909 29.1367" fill="none" xmlns="http://www.w3.org/2000/svg" xmlns:xlink="http://www.w3.org/1999/xlink">
	<desc>
			Created with Pixso.
	</desc>
	<defs/>
	<path id="Vector" d="M7.63 16.51C7.28 15.01 6.93 13.54 6.58 12.08C5.79 8.83 5.01 5.58 4.25 2.32C4.18 2.03 4.08 1.92 3.75 1.92C2.86 1.96 1.96 1.93 1.07 1.93C0.44 1.93 0 1.53 0 0.97C0 0.4 0.43 0 1.07 0C2.32 0 3.57 0 4.83 0C5.44 0 5.78 0.27 5.92 0.85C6.14 1.77 6.37 2.68 6.57 3.59C6.62 3.82 6.71 3.88 6.93 3.88C10.51 3.87 14.1 3.87 17.69 3.87C20.67 3.87 23.65 3.86 26.63 3.87C28.39 3.88 29.77 5.36 29.57 7.05C29.48 7.77 29.26 8.47 29.1 9.18C28.54 11.48 28 13.78 27.44 16.08C27.08 17.57 25.97 18.43 24.39 18.43C18.96 18.43 13.54 18.43 8.12 18.43C7.98 18.43 7.84 18.42 7.71 18.45C7.22 18.53 6.86 18.98 6.9 19.47C6.93 19.95 7.33 20.34 7.82 20.37C7.94 20.38 8.04 20.37 8.16 20.37C13.59 20.37 19.03 20.37 24.47 20.38C24.7 20.38 24.94 20.42 25.15 20.52C25.53 20.7 25.71 21.16 25.62 21.55C25.53 21.95 25.18 22.26 24.76 22.31C24.68 22.32 24.6 22.32 24.52 22.32C19 22.32 13.48 22.32 7.96 22.32C6.44 22.32 5.24 21.36 4.97 19.94C4.67 18.34 5.75 16.82 7.38 16.55C7.46 16.55 7.52 16.54 7.63 16.51ZM7.11 5.83C7.13 5.92 7.14 6 7.15 6.06C7.97 9.47 8.79 12.88 9.6 16.29C9.65 16.5 9.76 16.51 9.92 16.51C14.76 16.51 19.6 16.51 24.43 16.51C25.04 16.51 25.38 16.24 25.52 15.65C26.2 12.84 26.87 10.03 27.54 7.22C27.75 6.34 27.33 5.83 26.4 5.83C20.08 5.83 13.77 5.83 7.45 5.83C7.35 5.83 7.24 5.83 7.11 5.83Z" fill="#666666" fill-opacity="1.000000" fill-rule="nonzero"/>
	<path id="Vector" d="M10.85 23.3C12.47 23.3 13.81 24.62 13.81 26.22C13.81 27.83 12.48 29.12 10.84 29.13C9.23 29.13 7.89 27.83 7.89 26.25C7.88 24.62 9.2 23.31 10.85 23.3ZM10.83 25.25C10.3 25.26 9.86 25.69 9.86 26.22C9.86 26.76 10.32 27.2 10.88 27.19C11.41 27.17 11.84 26.73 11.83 26.2C11.82 25.68 11.37 25.24 10.83 25.25Z" fill="#666666" fill-opacity="1.000000" fill-rule="nonzero"/>
	<path id="Vector" d="M24.66 26.24C24.65 27.84 23.31 29.13 21.67 29.13C20.05 29.12 18.73 27.8 18.73 26.2C18.75 24.59 20.08 23.3 21.72 23.3C23.35 23.31 24.66 24.63 24.66 26.24ZM22.68 26.22C22.69 25.69 22.24 25.25 21.71 25.25C21.17 25.24 20.72 25.67 20.71 26.2C20.7 26.74 21.15 27.19 21.7 27.19C22.23 27.19 22.68 26.76 22.68 26.22Z" fill="#666666" fill-opacity="1.000000" fill-rule="nonzero"/>
</svg>
