<svg width="30.446411" height="30.000000" viewBox="0 0 30.4464 30" fill="none" xmlns="http://www.w3.org/2000/svg" xmlns:xlink="http://www.w3.org/1999/xlink">
	<desc>
			Created with Pixso.
	</desc>
	<defs/>
	<path id="Vector" d="M20.71 22.18C14.93 26.8 6.84 25.42 2.69 20.2C-1.25 15.25 -0.83 8.08 3.72 3.65C8.36 -0.88 15.57 -1.25 20.68 2.81C25.86 6.92 27.14 14.78 22.51 20.41C22.61 20.51 22.7 20.61 22.81 20.71C25.19 23.06 27.58 25.41 29.96 27.75C30.31 28.1 30.51 28.49 30.42 28.98C30.24 29.91 29.13 30.31 28.37 29.71C28.26 29.62 28.16 29.52 28.05 29.42C25.71 27.12 23.36 24.8 21.02 22.5C20.91 22.37 20.81 22.28 20.71 22.18ZM12.69 2.49C7.11 2.48 2.54 6.94 2.52 12.44C2.5 17.96 7.05 22.46 12.65 22.47C18.23 22.49 22.8 18.02 22.82 12.52C22.84 7.01 18.29 2.5 12.69 2.49Z" fill="#666666" fill-opacity="1.000000" fill-rule="nonzero"/>
</svg>
