<svg width="31.000000" height="31.000000" viewBox="0 0 31 31" fill="none" xmlns="http://www.w3.org/2000/svg" xmlns:xlink="http://www.w3.org/1999/xlink">
	<desc>
			Created with Pixso.
	</desc>
	<defs/>
	<circle id="Ellipse 96" cx="15.500000" cy="15.500000" r="15.500000" fill="#9BCC37" fill-opacity="1.000000"/>
	<path id="Vector" d="M12.99 18.2C13.13 18.06 13.21 17.99 13.31 17.88C16.01 15.11 18.7 12.34 21.4 9.57C21.73 9.23 22.08 8.98 22.55 9C23.12 9 23.55 9.27 23.82 9.78C24.09 10.3 24.04 10.82 23.71 11.31C23.62 11.45 23.5 11.56 23.38 11.68C20.31 14.84 17.24 17.98 14.17 21.13C13.36 21.95 12.59 21.95 11.79 21.13C10.37 19.66 8.93 18.19 7.51 16.73C6.98 16.17 6.85 15.53 7.16 14.93C7.63 14.03 8.75 13.87 9.51 14.64C10.57 15.72 11.62 16.81 12.69 17.9C12.77 18 12.8 18.02 12.99 18.2Z" fill="#FFFFFF" fill-opacity="1.000000" fill-rule="nonzero"/>
</svg>
